<svg width="500" height="500" viewBox="0 0 500 500" fill="none" xmlns="http://www.w3.org/2000/svg">
<g clip-path="url(#clip0_2029_36)">
<path d="M180.468 339.023C173.161 325.759 165.776 312.528 158.575 299.205C153.628 290.054 148.815 280.819 144.179 271.507C131.731 246.447 118.995 221.511 107.152 196.151C95.459 171.107 84.6366 145.649 73.6309 120.283C71.0803 114.416 69.3597 108.191 67.2185 102.148C63.2506 90.8835 68.1266 82.1882 80.1279 81.1823C94.0431 80.0219 108.057 80.1569 122.026 79.5501C140.753 78.7198 159.477 77.1823 178.22 76.9088C203.364 76.5439 228.522 77.3402 253.665 77.1858C283.591 76.9929 313.503 76.1245 343.424 75.9205C365.745 75.7605 388.061 76.0483 410.382 76.4389C417.612 76.5678 420.523 80.0108 419.892 87.1418C419.108 96.1098 414.559 103.523 409.931 111.089C395.176 135.262 380.831 159.691 366.54 184.15C358.502 197.905 350.411 211.656 343.185 225.835C333.613 244.617 324.605 263.707 315.814 282.875C305.161 306.096 294.834 329.466 284.649 352.893C275.727 373.402 267.068 394.034 258.583 414.736C256.794 419.112 256.132 423.975 255.194 428.654C253.631 436.422 246.924 442.417 239.354 441.712C237.1 441.502 234.273 439.321 233.053 437.249C222.526 419.337 212.301 401.242 201.986 383.213C197.022 374.541 191.831 365.98 187.178 357.148C184.21 351.5 182.033 345.433 179.504 339.556C179.817 339.369 180.135 339.193 180.448 339.006L180.468 339.023ZM238.268 414.099C239.248 413.939 240.218 413.784 241.194 413.613C245.811 401.816 250.179 389.929 255.117 378.269C259.956 366.835 265.447 355.698 270.524 344.359C287.517 306.395 303.817 268.1 321.652 230.535C332.42 207.855 345.394 186.218 357.617 164.236C362.853 154.822 369.047 145.927 374.162 136.447C381.554 122.747 388.199 108.622 398.986 97.0813C399.354 96.6869 398.963 95.5958 398.799 92.2565C294.721 97.3738 190.361 89.6409 85.3213 98.7399C86.1917 102.287 86.5325 105 87.5185 107.474C90.6098 115.299 93.7612 123.111 97.2177 130.779C112.691 165.096 127.648 199.675 144.025 233.563C158.126 262.739 174.048 291.026 188.815 319.889C195.381 332.712 200.836 346.091 207.263 358.986C212.257 369.009 217.879 378.722 223.379 388.488C228.234 397.089 233.301 405.572 238.284 414.105L238.268 414.099Z" fill="white" stroke="black" stroke-width="60" paint-order="stroke fill"/>
<path d="M256.667 190.892C260.672 201.236 258.177 208.119 249.258 211.38C239.418 214.971 231.094 211.811 227.358 203.096C224.515 196.489 227.732 183.969 232.842 181.731C241.639 177.881 253.377 182.392 256.667 190.892Z" fill="white" stroke="black" stroke-width="60" paint-order="stroke fill"/>
</g>
<defs>
<clipPath id="clip0_2029_36">
<rect width="500" height="500" fill="white"/>
</clipPath>
</defs>
</svg>
