<svg width="200" height="200" viewBox="0 0 200 200" fill="none" xmlns="http://www.w3.org/2000/svg">
<g clip-path="url(#clip0_2029_41)">
<rect width="200" height="200" fill="black"/>
<path d="M69.6711 134.123C66.7804 128.876 63.8592 123.642 61.0105 118.371C59.0534 114.751 57.1495 111.098 55.3156 107.415C50.3913 97.5011 45.3532 87.6367 40.6684 77.6046C36.0427 67.6976 31.7615 57.6268 27.4078 47.5924C26.3988 45.2714 25.7181 42.8092 24.8711 40.4185C23.3015 35.9625 25.2304 32.5227 29.9779 32.1248C35.4825 31.6658 41.0261 31.7192 46.5524 31.4791C53.9603 31.1507 61.3672 30.5425 68.7818 30.4343C78.7283 30.2899 88.6805 30.605 98.6265 30.5439C110.465 30.4675 122.297 30.124 134.134 30.0433C142.964 29.98 151.792 30.0939 160.621 30.2484C163.481 30.2994 164.633 31.6614 164.384 34.4823C164.073 38.0299 162.274 40.9625 160.443 43.9553C154.606 53.518 148.932 63.1818 143.278 72.8575C140.099 78.2985 136.898 83.7382 134.04 89.3471C130.253 96.7772 126.689 104.329 123.212 111.911C118.998 121.097 114.912 130.342 110.883 139.609C107.354 147.723 103.929 155.884 100.572 164.074C99.8643 165.805 99.6023 167.728 99.2313 169.58C98.613 172.653 95.9598 175.024 92.9655 174.745C92.0736 174.662 90.9553 173.799 90.4729 172.98C86.3086 165.894 82.2638 158.736 78.1833 151.604C76.2196 148.173 74.1659 144.787 72.3254 141.293C71.1513 139.058 70.2899 136.658 69.2896 134.334C69.4134 134.26 69.5391 134.19 69.6629 134.116L69.6711 134.123ZM92.5357 163.822C92.9236 163.758 93.3071 163.697 93.6932 163.63C95.5195 158.963 97.2476 154.26 99.2011 149.648C101.115 145.125 103.287 140.719 105.296 136.234C112.018 121.216 118.466 106.067 125.521 91.2067C129.781 82.2345 134.913 73.6754 139.749 64.9797C141.82 61.2556 144.27 57.7369 146.293 53.9867C149.218 48.5673 151.846 42.9794 156.113 38.4142C156.259 38.2582 156.104 37.8266 156.039 36.5056C114.868 38.5299 73.5846 35.4709 32.0323 39.0703C32.3766 40.4736 32.5115 41.5466 32.9015 42.5255C34.1244 45.6209 35.371 48.7113 36.7384 51.7446C42.8594 65.3198 48.776 78.9987 55.2548 92.4044C60.8328 103.946 67.1314 115.136 72.9727 126.554C75.5702 131.626 77.7281 136.919 80.2705 142.02C82.2462 145.985 84.4702 149.827 86.6461 153.69C88.5665 157.093 90.5708 160.449 92.5419 163.824L92.5357 163.822Z" fill="#25FF48"/>
<path d="M99.8143 75.5247C101.398 79.6165 100.412 82.3396 96.8832 83.6294C92.9908 85.0499 89.6979 83.7999 88.2198 80.3525C87.0952 77.7388 88.3679 72.7861 90.3893 71.9008C93.8692 70.3777 98.5128 72.1621 99.8143 75.5247Z" fill="#25FF48"/>
</g>
<defs>
<clipPath id="clip0_2029_41">
<rect width="200" height="200" fill="white"/>
</clipPath>
</defs>
</svg>
