<svg width="500" height="500" viewBox="0 0 500 500" fill="none" xmlns="http://www.w3.org/2000/svg">
<path d="M352 198.772C348.114 201.309 342.809 202.546 336.763 201.742C318.073 199.205 299.196 197.472 280.567 194.256C270.697 192.584 260.95 191.038 250.895 191.162C223.753 191.533 196.549 190.914 169.592 195.555C157.748 197.596 149.728 192.461 148.68 180.458C147.755 169.445 147.755 158.247 148.742 147.295C150.345 129.662 153.862 112.4 161.943 96.313C168.173 83.9387 176.624 74.8443 189.948 69.0897C203.397 63.2744 217.584 63.0263 231.279 60.4279C240.409 58.6953 250.772 62.7174 259.779 67.358C266.811 71.0082 274.644 73.2355 281.245 77.5042C291.609 84.1869 301.726 91.4873 310.917 99.6544C327.881 114.627 337.504 134.611 346.14 155.091C348.114 159.793 349.163 165.052 349.78 170.188C350.828 179.283 351.137 188.502 351.877 198.71L352 198.772ZM335.283 186.274C334.604 177.859 335.098 171.116 333.309 164.99C328.374 148.347 320.849 132.879 309.807 119.205C296.667 102.996 280.444 91.2399 261.567 82.8254C257.187 80.9078 252.869 78.6182 248.305 77.2568C232.697 72.617 217.399 75.7102 202.595 80.6596C194.884 83.2588 186.741 86.5379 181.991 93.7768C177.488 100.644 172.429 107.759 170.27 115.555C166.261 130.095 163.67 145.068 161.511 160.041C160.585 166.599 162.066 173.59 162.436 180.829C165.459 180.706 167.433 180.582 169.468 180.52C189.085 179.592 208.763 178.602 228.441 177.735C250.649 176.746 272.486 180.149 294.384 182.809C307.339 184.356 320.355 185.098 335.345 186.336L335.283 186.274Z" fill="white" stroke="black" stroke-width="60" paint-order="stroke fill"/>
<path d="M239.236 250.805C235.658 261.076 232.203 271.409 228.625 281.679C226.589 287.557 224.369 293.373 222.333 299.25C214.869 321.091 207.529 342.932 200.002 364.772C198.768 368.36 197.35 372.011 195.438 375.228C188.467 386.613 182.406 407.666 175.376 423.426C174.266 428.375 173.587 433.758 167.788 437.1C161.99 441.802 159.399 438.336 157.918 432.398C159.214 423.487 169.776 402.08 173.107 393.109C179.83 374.61 187.418 356.419 194.019 337.858C201.175 317.688 207.59 297.208 214.437 276.853C219.31 262.437 224.369 248.083 229.365 233.667C230.846 229.459 233.437 227.728 238.125 228.594C244.973 229.769 249.845 232.244 252.621 239.669C259.838 258.663 267.735 277.471 275.878 296.095C284.884 316.636 294.569 336.868 303.636 357.347C308.88 369.227 313.322 381.539 318.503 393.48C321.896 401.399 326.029 409.01 329.792 416.806C331.272 419.899 334.742 423.055 335.914 426.334C338.073 432.397 336.654 437.533 332.707 438.893C329.19 437.965 322.899 438.089 320.184 432.398C317.716 427.076 313.568 421.57 311.286 416.187C302.033 394.223 292.657 372.32 283.465 350.356C272.361 323.937 260.086 298.013 251.141 270.666C248.92 263.922 245.157 257.673 242.073 251.176C241.148 251.053 240.284 250.991 239.359 250.867L239.236 250.805Z" fill="white" stroke="black" stroke-width="60" paint-order="stroke fill"/>
</svg>
