<svg width="200" height="200" viewBox="0 0 200 200" fill="none" xmlns="http://www.w3.org/2000/svg">
<rect width="200" height="200" fill="black"/>
<path d="M140.8 79.5086C139.246 80.5234 137.124 81.0185 134.705 80.6968C127.229 79.682 119.679 78.989 112.227 77.7022C108.279 77.0338 104.38 76.4152 100.358 76.4646C89.5011 76.6131 78.6195 76.3657 67.8368 78.2219C63.0991 79.0384 59.8913 76.9843 59.4718 72.1833C59.1018 67.7779 59.1018 63.2987 59.4967 58.9181C60.1381 51.8648 61.5447 44.9599 64.7771 38.5252C67.2692 33.5755 70.6497 29.9377 75.9793 27.6359C81.3586 25.3098 87.0336 25.2105 92.5116 24.1711C96.1635 23.4781 100.309 25.087 103.911 26.9432C106.724 28.4033 109.858 29.2942 112.498 31.0017C116.643 33.6747 120.69 36.5949 124.367 39.8617C131.152 45.8508 135.002 53.8446 138.456 62.0365C139.246 63.9173 139.665 66.0209 139.912 68.0751C140.331 71.7131 140.455 75.4007 140.751 79.4841L140.8 79.5086ZM134.113 74.5095C133.842 71.1437 134.039 68.4463 133.324 65.996C131.35 59.3388 128.339 53.1515 123.923 47.6821C118.667 41.1983 112.177 36.496 104.627 33.1302C102.875 32.3631 101.148 31.4473 99.3219 30.9027C93.0789 29.0468 86.9595 30.2841 81.0378 32.2638C77.9535 33.3035 74.6962 34.6151 72.7963 37.5107C70.9951 40.2576 68.9717 43.1037 68.1081 46.2221C66.5042 52.0381 65.4679 58.0272 64.6044 64.0163C64.2341 66.6396 64.8263 69.4362 64.9744 72.3318C66.1834 72.2823 66.9732 72.2328 67.7873 72.2079C75.6338 71.8367 83.5053 71.4408 91.3764 71.0942C100.259 70.6984 108.994 72.0595 117.754 73.1237C122.936 73.7424 128.142 74.0392 134.138 74.5343L134.113 74.5095Z" fill="#25FF48"/>
<path d="M95.6942 100.322C94.2631 104.43 92.8813 108.563 91.4501 112.671C90.6357 115.023 89.7476 117.349 88.9332 119.7C85.9476 128.436 83.0114 137.173 80.0009 145.909C79.5073 147.344 78.94 148.804 78.1751 150.091C75.3868 154.645 72.9623 163.066 70.1503 169.37C69.7062 171.35 69.4349 173.503 67.1152 174.84C64.7959 176.721 63.7596 175.335 63.1674 172.959C63.6855 169.395 67.9103 160.832 69.2428 157.244C71.9322 149.844 74.9673 142.568 77.6075 135.143C80.4699 127.075 83.036 118.883 85.7748 110.741C87.7242 104.975 89.7476 99.2332 91.7461 93.4666C92.3383 91.7838 93.3746 91.0911 95.2499 91.4374C97.989 91.9076 99.938 92.8975 101.048 95.8674C103.935 103.465 107.094 110.989 110.351 118.438C113.953 126.655 117.828 134.747 121.455 142.939C123.552 147.691 125.329 152.616 127.401 157.392C128.758 160.56 130.412 163.604 131.917 166.722C132.509 167.96 133.897 169.222 134.366 170.534C135.229 172.959 134.662 175.013 133.083 175.557C131.676 175.186 129.159 175.236 128.074 172.959C127.087 170.83 125.427 168.628 124.514 166.475C120.813 157.689 117.063 148.928 113.386 140.142C108.944 129.575 104.034 119.205 100.457 108.266C99.568 105.569 98.0628 103.069 96.8292 100.47C96.4592 100.421 96.1134 100.396 95.7434 100.347L95.6942 100.322Z" fill="#25FF48"/>
</svg>
